<svg xmlns="http://www.w3.org/2000/svg" xmlns:xlink="http://www.w3.org/1999/xlink" width="81" height="94" viewBox="0 0 81 94">
    <defs>
        <path id="a" d="M49.958 52.074c13.054 1.775 21.276 9.857 24.667 24.244C76.542 88.106 73.282 94 64.847 94h-49.91c-7.644 0-10.904-5.894-9.783-17.682 3.395-14.405 11.634-22.489 24.715-24.25 2.187 3.322 5.398 5.288 10.02 5.288 4.586 0 7.782-1.934 9.968-5.209-2.838 2.038-6.236 3.224-9.888 3.224-9.948 0-18.012-8.799-18.012-19.652 0-5.156 1.82-9.848 4.798-13.354 3.83.539 8.36.85 13.214.85 4.855 0 9.384-.311 13.213-.85 2.978 3.506 4.799 8.198 4.799 13.354 0 6.821-3.186 12.831-8.023 16.355zm3.635-36.657v5.164c-3.794.58-8.282.916-13.093.916-4.81 0-9.299-.336-13.093-.916v-5.164l9.141 2.51c2.723.747 5.18.747 7.904 0l9.141-2.51zm-52.06-7.96l33.729-6.3c3.61-.674 6.866-.674 10.476 0l33.729 6.3c.514.096.867.455.867.88 0 .427-.353.786-.867.882l-6.972 1.302v11.246l3.757 5.254c.522.729.214 1.662-.688 2.084-.902.422-2.058.173-2.58-.556l-.489-.683v.788c0 .844-.847 1.528-1.892 1.528-1.046 0-1.893-.684-1.893-1.528v-.788l-.489.683c-.522.729-1.677.977-2.58.555-.902-.422-1.21-1.355-.687-2.083l3.756-5.255V11.228l-22.972 4.29c-3.61.675-6.866.675-10.476 0L1.533 9.22c-.514-.096-.867-.455-.867-.881s.353-.785.867-.881z"/>
    </defs>
    <use fill="#F3BD51" fill-rule="nonzero" xlink:href="#a"/>
</svg>
