<svg xmlns="http://www.w3.org/2000/svg" width="140" height="88" viewBox="0 0 140 88">
    <path fill="#F3BD51" fill-rule="evenodd" d="M135.093 25.81l-.29.12-.398.181-.232-.19-.088.079-.018-.122-.233.183v-.452l.014-.01-.347.15-.574.286-.16-.024-.155.24-.397.307-.563.22-.002-.014-1.105.548-.78.165-.462.257-.099-.074-.22.243-.56.498-.816.555.073.13-.308.291.005.023.06-.013.208-.18.372-.411.214-.117.28.104.304.027 1.165-.575.427-.397.247-.285.878.334-.653.688-1.71 1.268-.398.153-.893.292-.655.18-.168-.067.004.039-.377.34.215-.024.256-.186.314.668.03 1.432.099.18-.186.908-.482 1.008-.4.59-.123.742-.378.43h-.277l-.062-.562.121-.151-.012-.096-.56-.088-.762-.37-.505-.458-.119-.236-.017.072.278.477.355.154.31.586.267.696.465.31.214-.107.41 1.3.049-.008-.102.919-.255.57-.043.602-.445.581-.057.657.079.534-.296.82-.49.422-.29-.888.07-.88.242-.633.102-.48-.014-.244-.1.04-.225-.09-.451-.592-.022.01.12.392c.111.447.111.492.111.507 0 .028 0 .094-.171.265l-.106.105-.255-.44-.031-.282-.218-.495.046-.01-.344-.044-.454-.592.054-.612.19-.154-.06-.067-.11.187-.256.103-.066-.783.32-.153-.06-.673-.261-.043-.075-.273.21-.595-.222.152a1.29 1.29 0 0 0-.059.248c0 .103-.097.242-.186.347l.151.152.037.38-.195.795.298.78.385.336v.29l.248.346-.219.458-.26-.037.306.292.5.062.193.258-.06.7.225.176-.074.284.175.117-.055.387-.39-.014.004.06.351.23.017.228.27.269.1.5-.333.178.08.075.91-.266.652 1.09.007-.002.02.048.015.024-.004.001.312.748.538.967.377.378.041.156.177-.05.467.966.062.681-.035.598-.57.25-.415.356-.201.22-.451-.081.56-.538.526-.42.165-.067.022-.225-.088-.892-.227-.356-.023-.072-.151.015-.05.706-.412.206-.083.287-.218.484-.635.275-.392-.05.117.191-.261.864h.568l.057.152.243-.242.507-.195-.433.82-.514.795h-.286l-.156-.071-.364.08-.771.356-.972.791-.5.69-.285.974-.091.44-.792.084-.766.225-.858.873-.382.895-.08 1.008-.264.132-.174.427-.377.094-.315.531-.405.405-.363.535-.256.128-.569.536-.34.024.13.414-.829.874-.374.257-.026.01.092.276-.51.955.075.388-.24.672-.343 1.495.137 1.08-.005-.001.35 1.111.561 1.468.807 1.429.56.951.727.833.626.585.283.512-.21.248-.078.157.416 1.06.449.457.397.81.546.876.704 1.294.199 1.162.077 1.831.094.283-.053.604-.35.19.038.237-.093.292.034.269.12-.337.332-.237-.046.787-.162.275-.388 1.02-.594.624L117.723 87l-.366-.335.495-.31.512-.286.652-.62.424-.701-.048.055-.517.25-.574.03-.214.228-.433.18-.262-.1-.216-.197-.05-.486-.116-.486-.496-.757-.506-.323-.498-.038-.177.287-.59-.836-.092-.552-.37-.57-.165-.1-.224.294-.406-.068-.34-.81-.445-.597-.438-.8-.39-.465-.62-.635.384-.438.465-.797-.016-.126-.576-.128-.028.01.362.14-.277.83-.27.167-.335-.748-.202-.75-.048-.437.23-.724v-1.393l-.45-.562-.176-.42-.74-.186-.338-.106-.25-.405-.534-.25-.166-.514-.397-.147-.367-.565-.62-.222-.419-.216h-.358l-.518.103-.017.16.137.17-.139.305-.502-.033-.556.534-.576.304h-.603l-.61.247-.058-.529-.203-.24-.437-.166-.249-.233-1.212-.583-1.13-.267-.652.089-.91.076-.922.32-.635.116-.002-.06-.817.392-.747-.083.612-.43v-.065l-.437-.847-.2-.052-.195.572-.248.516-.17-.057h-.462l-.072.29h-.914l-.237-.126-.278-.04-1.057.296-.221-.099-.357.576-.312.227-.003-.008-.291.26-.211.223.086.155.313.06.074-.318.339-.374.387-.051.056.5.224.326-.345.594h-.251l.11.06-.092.272-.357-.047-.101.247.393.282.89.123.514.407h.273v.382l-.45.606-.229-.208h-.46l-.17-.254-.568-.27-.706-.1-.098-.507-.094.11-.257.062.022.16-.067.135.474.067-.368.23-.358.53-.624.238-.274-.274.423-.147-.083-.303-.096-.073-.226.188-.367.084-.15.36-.64.23-1.347-.576-.364-.363.295-.18.07-.142-.186-.186-.74-.05-.054-.42-.19-.303-.399-.074-.308.17-.287-.239-.37.12-.05.091.282.167.385-.074.631.216-.203.533-.593-.185-.452-.156-.556.226-1.046-.178-1.555-.543-1.202.044-.757.24v.006l-.937.267-1.472.668-.147.28-.742.535-.195.12-.864.803-.42.327-.838.504-.872.367-.944.51-.28.23-.797.495.02.006-.827 1.135-.662.976-.297.978-.044.77.134.909.4 1.117.077.794.043.32-.21.07L68 86l-.048-.057-.035.011.007.01-.21.314-.56.342-.913-.625-.786-.157-.199.076-.547-.102-.644-.475-.794-.17-1.199-.535-.351-.662-.189-.944-.486-.288-.12-.46.108-.109.035-.398-.157-.072-.136-.227.197-.667-.194-.279-.486-.197-.55-.712-.536-.982-.678-.42.035-.331-.806-1.876-.116-.609-.278-.292-.03-.224-.898-.794-.425-.505v-.155l-.331-.268-1.01-.163-1.157-.093-.449-.333-.629.251-.52.216-.32.446-.165.582-.685.946-.42.42-.486-.189-.264-.16-.301-.099-.653-.385v-.11l-.227-.24-.796-.32-1.169-1.24-.364-.741V70.71l-.487-.999-.068-.363-.228-.142-.164-.312-.753-.316-.217-.267-1.104-1.236-.182-.448-.723-.353-.237-.696-.36-.401-.22-.065v.004l-2.01-.247-2.443-.38-.183 1.464-2.648-.335.002-.011-3.923-.417-1.929-.382-2.57-1.528-2.249-1.314-1.854-1.163-2.918-1.649-.11-.22.062-.306.32-.27-2.12-.135-3.023-.413-1.605-.24-.1-.378v-1.436l-.044-.452-.394-.641-.115-.329-.594-.642-.413-.668-.374-.03-.553-.137-.094-.316.239-.096-.07-.371-.187-.262-.723-.126-.63-.34-.184-.384-.389-.715-.4-.427h-.422l-.622-.335-.663-.264-.67-.08-.438-.49.092-.35.28-1.1.114-.27v-.28l-.234-.145-.082-.474-.74-1.265-.205-.487-.233-.728-.24-.793-.493-.678-.085-.49.145-.71h.224l.26-.198.147-.478-.117-.315-.394-.073-.318-.434-.342-.601-.032-1.301.098-.309.09-.346.063-.304-.863-.952v-.396l.05-.082.04-.44-.191-.588-.346-.719-.409-.678-.298-.645.161-.596.094-.902.273-.47.044-.946-.162-.53-.238-.624L0 27.28l.134-.537.25-.698.27-.12.041-.15.482-.404.776-1.758.036-1.142.29-.84-.412-.531.21-.969.123-1.329.306-.467 1.239-1.924.988-2.065.76-2.144.491-.997.487-1.52.371-1.048.834-.301-.142-.024-.325.18-.441-.556.06-.581.437-.049.177-.443-.368-.156.04-.74.538-.073-.274-.273-.241-1.142.094-.455V2.86l-.283-.503.39-1.59.47.111.391.473.395.378.478.284.666.31.491.1.434.224.489.143.225-.02v-.314l.254-.213.452-.28.086.317.02.115v-.372l.263-.527-.147-.348-.387-.772.078-.207.295-.169.722.246 1.479.41 1.31.29 3.066.872 3.516.87 2.41.56-.001.002 2.136.422v.001l5.045 1.061 2.812.52 4.94.809 4.48.61 4.467.535 4.73.47 3.972.34 4.05.198 2.845.091 4.368.09v-.003l4.653.005.044-1.222.197-.066.403.09.35.147.132.905.22.89.189.188h.781l.047.234.983.046v.316h.529l.033-.142.213-.213.437-.114.212.163h.44l.618.411.79.358.269.056.058-.116.401-.134.09.518.272.135.059-.059.353.055v.34l.305.117h.426l.204-.102.501-.5.522-.1.21.488h.034l.151-.12 1.469-.05.259.445.084-.132.892-.08-.147.56-.646.299-1.409.627-.72.3-.45.375-.357.536-.367.623-.287.127-.7.776-.21.032-.438.334.13.09.397.07.411-.086 1.112-.48.458-.296.382-.146.443.35-.25.25-.276.45-.06.19.018.011.253-.133.195-.036.485.144.088.161.033.006.101-.185-.002-.003.006-.005.032-.058.019.024.179-.122.397-.117.484-.31v-.137l.152-.15.925-.155.366-.285.618-.295.025-.164.323-.492.278-.123.193-.264.378-.371.694-.378.796-.084.255.255-.084.28-.577.155-.227.47-.336.116-.068.328-.364.485-.03.254.077-.082.631-.508.238.238.339.006.523.17.253.184.233.482.364.363.514-.026.274-.183.293.238.174.055.182-.112h.168l.208-.13.623-.56.574-.18.989-.046.67-.282.422-.212.364.049.008.91.399.11 1.164-.305.196-.196.375.125v1.104l.441.426.203.097.097.074-.02-.088-.19-.095.09-.332.322-.04.403-.037.039.05c.078.103.178.226.214.26.042.022.098.083.115.337l.004.055-.276.253-.623-.039-.01-.045-.243.056-.142-.054-.53-.071-.318.09-.343-.03-.485.228-.326-.003-.872-.195-.726.028-.288.394-1.11.095-.301.1-.16.45-.276.233-.164-.065-.187-.2-.636.34h-.18l-.153-.222-.26.602-.158.623-.51 1.097.004.002-.223.466-.275.243-.311.696-.186.343.018.156.066.013.144-.247.219-.117.117-.335.301-.286 1.062-1.583.271-.17.096.318-.042.409-.443 1.039-.408.86-.074.472-.083.36.117.19-.036.485-.298.376-.063.228.186 1.085-.243.42-.118.43-.141.435.16.363.09.918.248.697-.036.546.063.871.21.365.253.283.206.586.124.402.011.052.586.161.186.124.091-.025.301-.272.419-.301.034-.003.601-.58.051-.408.36-.78.27-1.593-.222-.708-.44-.98-.563-.938.056-.478.046-.122.107-.32-.067-.16-.096-.748.252-.628.16-.892-.118-.375v-.26l.37-.081.064-.275-.09-.12.047-.236.315-.332.382-.155.152-.641.416-.175.223.223-.118.456-.185.341v.498l.41-.239-.043-.77-.047-.249.053-.371.28-.335.433-.05.176-.055-.18-.042-.234-.07-.057-.69.492-.389.52-.323.53.391.07.035.066-.066h.494l.857.53.659.218h.45l.22.44.427.361-.053.427-.305-.057-.027.027.082.215.186.114.278.4.048 1.625-.382.254-.218.932-.508.194a8.66 8.66 0 0 1-.069.683c.04.047.17.142.3.218l.172.068.098-.053.39-.532.301-.793.63-.291.303-.207.489.345.381.507.358 1.413.493 1.276.064 1.463-.394.207-.226-.056-.036-.109-.025-.013-.165.33-.034.61-.219.06-.188.187.031.785-.333.282-.3.529-.045.3.095-.014.736.43.81-.094.52.475.251-.024.853-.398.444-.077.451-.113.59-.574.542-.582 1.617-.96-.001-.007.727-.447.178-.068 1.025-.988.002.026.236-.177.18-.152.158-.253.289-.175.26-.247.086-.252.335-.427.12-.109-.015-.078-.169-.4-.283-.032-.339-1.088.543-.333.673-.23.631-.203.49-.076 1.015-.033.3.204.176.022.303-.186.431-.176.76-.073.278-.238.278-.49.28-.33h.343l.212-.123.022-.25-.22-.307-.058-.293.174-.331v-.087h-.185l-.325-.144-.16-.22-.037-.483.92-.872.08-.107.225-.434.45-.697.416-.571.345-.39.395-.291.49-.188.858-.203.484.03.667-.222 1.264-.375.002.014 4.077-1.06-.02-.337.034-.392.33-.419.207.206.058-.155.193-.022v-.003l.356-.047.107.029.002-.265.135-.879.394-.71.204-.543-.276-.348V9.36l.134-.167.11-.368-.028-.205-.033-.767.284-.755.448-1.37.353-.706.288.002.296.045v.236l.159.281.301.067.045-.044v-.164l.652-.472.31-.309.312.046.918.366.344.18.014.046 1.368 4.487h.91l.16.4.029.682.323.256-.081-.18.636-.113.346.385.369.593v.347l-.352.788-.316.1-.502.456-.76.87h-.25a.155.155 0 0 1-.043-.006l.075.166-.168.149c-.013.11-.025.227-.025.249v.05l-.043.046c-.016.015-.056.052-.199.052a1.07 1.07 0 0 1-.08-.003l-.045-.004-.179-.188-.12.143-.081.44.057-.008.031.085v.19l-.24-.12-.11.071.063.252-.434.23-.109-.175-.012.008-.006-.038-.233-.374.046.423-.294.475-.409.07-.043.416-.878.51-.266.103-.21-.197-.354.411.156.5-.249.216-.028.623-.195 1.117-.013-.005-.188.545-.082.093.51.771-.389.84-.033.167.193.264.106-.077h.365l.396.45.568.872.467.065.303-.131.211-.212-.092-.31-.233-.178-.25.133-.274-.355.177-.177.392-.037.33.146.326.422.158.467.058.458-.73.26-.564.275-.285.327h.27l.31.258.015-.03.259-.14.072-.416.262.045.19.743-.29.18L135 26l.093-.19zm1.511-10.327l.018.02.081-.01-.099-.01zM9.32 54l.485.324.196.319-.158.357-.374-.135-.392-.448H9v-.365L9.32 54zm-.013 1l.366.524.328.417-.546.059-.303-.225-.011-.02c-.064-.11-.14-.255-.14-.324V55h.306zm-3.354-4l.493.413.555.308-.292.279-.636-.04-.242-.355-.016-.037-.037.343-.545-.024-.101-.29-.131-.47h.6l.096.16-.033-.08.29-.207zm110.614 36.081l.312.048.122.293-.64.19-.628.196-.424.192-.308-.328.538-.117.157-.02.211-.283.417-.252.243.081zm-28.838-75.29l-.34.209-.388-.327.349-.582.317-.165.753-.778.396-.148.185.265-.803 1.141-.469.386zm-76.42-9.91l-.23-.396L11 1.061l.383-.043.032.1.099-.118h.345l.141.298-.162.206.053.08-.107.346-.213.067a.35.35 0 0 1-.046.003c-.051 0-.09-.013-.115-.039a.118.118 0 0 1-.034-.083c0-.014 0-.031.025-.087l-.093.09z"/>
</svg>
