<?xml version="1.0" encoding="UTF-8"?>
<svg width="1000px" height="544px" viewBox="0 0 1000 544" version="1.1" xmlns="http://www.w3.org/2000/svg" xmlns:xlink="http://www.w3.org/1999/xlink">
    <!-- Generator: Sketch 52.2 (67145) - http://www.bohemiancoding.com/sketch -->
    <title>sso-uam-apps</title>
    <desc>Created with Sketch.</desc>
    <defs>
        <polygon id="path-1" points="1.45588235 0.717391304 2.19139412 0.717391304 2.19139412 2.16666667 1.45588235 2.16666667"></polygon>
        <polygon id="path-3" points="0.734783824 0.724492754 1.47044118 0.724492754 1.47044118 2.17376812 0.734783824 2.17376812"></polygon>
        <polygon id="path-5" points="0.572016176 0.717391304 2.02789853 0.717391304 2.02789853 1.44927536 0.572016176 1.44927536"></polygon>
        <polygon id="path-7" points="0.564154412 1.43478261 2.02003676 1.43478261 2.02003676 2.16666667 0.564154412 2.16666667"></polygon>
        <polygon id="path-9" points="1.45588235 97.1157971 97.5586765 97.1157971 97.5586765 1.44913043 1.45588235 1.44913043"></polygon>
        <polygon id="path-11" points="0 0.000403846154 86.1534423 0.000403846154 86.1534423 69.7874423 0 69.7874423"></polygon>
        <polygon id="path-13" points="0 0.000403846154 86.1534423 0.000403846154 86.1534423 69.7874423 0 69.7874423"></polygon>
        <polygon id="path-15" points="0 0.000403846154 86.1534423 0.000403846154 86.1534423 69.7874423 0 69.7874423"></polygon>
        <polygon id="path-17" points="0 72 70.831 72 70.831 0.618 0 0.618"></polygon>
        <polygon id="path-19" points="0 72 70.831 72 70.831 0.618 0 0.618"></polygon>
        <polygon id="path-21" points="0 72 70.831 72 70.831 0.618 0 0.618"></polygon>
    </defs>
    <g id="sso-uam-apps" stroke="none" stroke-width="1" fill="none" fill-rule="evenodd">
        <path d="M160.20818,269.872858 C167.720636,266.009199 172.866521,258.226203 172.866521,249.235209 C172.866521,236.402343 162.406233,226 149.498779,226 C136.593767,226 126.131037,236.402343 126.131037,249.235209 C126.131037,258.226203 131.276922,266.009199 138.79182,269.872858 C124.633918,274.012492 113.941613,286.140893 112,301 L187,301 C185.058387,286.140893 174.366082,274.012492 160.20818,269.872858" id="Fill-1" fill="#4A4C54"></path>
        <path d="M135.398355,327.981742 C132.048881,327.981742 130,326.064607 130,322.303371 L130,315 L132.743719,315 L132.743719,322.230337 C132.743719,324.311798 133.759251,325.389045 135.433988,325.389045 C137.108725,325.389045 138.124258,324.348315 138.124258,322.321629 L138.124258,315 L140.867976,315 L140.867976,322.212079 C140.867976,326.082865 138.74783,327.981742 135.398355,327.981742 Z M146.729557,327.963483 C145.39333,327.963483 143.896757,327.507022 142.631795,326.484551 L143.789858,324.658708 C144.823207,325.425562 145.910005,325.827247 146.800822,325.827247 C147.584742,325.827247 147.941069,325.535112 147.941069,325.09691 L147.941069,325.060393 C147.941069,324.457865 147.014619,324.257022 145.963454,323.928371 C144.627227,323.526685 143.112837,322.88764 143.112837,320.988764 L143.112837,320.952247 C143.112837,318.962079 144.680676,317.848315 146.604842,317.848315 C147.816354,317.848315 149.134765,318.268258 150.168113,318.980337 L149.134765,320.897472 C148.190498,320.331461 147.246231,319.984551 146.551393,319.984551 C145.892188,319.984551 145.553677,320.276685 145.553677,320.660112 L145.553677,320.696629 C145.553677,321.244382 146.462312,321.5 147.49566,321.865169 C148.831887,322.321629 150.38191,322.978933 150.38191,324.768258 L150.38191,324.804775 C150.38191,326.977528 148.796254,327.963483 146.729557,327.963483 Z M156.849246,328 C153.980813,328 151.860667,325.936798 151.860667,322.942416 L151.860667,322.905899 C151.860667,320.11236 153.80265,317.811798 156.582001,317.811798 C159.771128,317.811798 161.232069,320.349719 161.232069,323.125 C161.232069,323.344101 161.214253,323.599719 161.196437,323.855337 L154.550937,323.855337 C154.818182,325.115169 155.673367,325.772472 156.884879,325.772472 C157.793513,325.772472 158.452718,325.480337 159.201005,324.768258 L160.751028,326.174157 C159.86021,327.30618 158.577433,328 156.849246,328 Z M154.515304,322.120787 L158.595249,322.120787 C158.434902,320.879213 157.722248,320.039326 156.582001,320.039326 C155.459571,320.039326 154.7291,320.860955 154.515304,322.120787 Z M163.245317,327.780899 L163.245317,317.994382 L165.953403,317.994382 L165.953403,319.966292 C166.50571,318.615169 167.396528,317.738764 169,317.811798 L169,320.714888 L168.857469,320.714888 C167.058017,320.714888 165.953403,321.828652 165.953403,324.16573 L165.953403,327.780899 L163.245317,327.780899 Z" id="User" fill="#494B54"></path>
        <path id="Line" d="M302.5,272.2 L186.639676,272.2 L186.139676,272.2 L186.139676,271.2 L186.639676,271.2 L302.5,271.2 L302.5,267.2 L311.5,271.7 L302.5,276.2 L302.5,272.2 Z" fill="#76787F" fill-rule="nonzero"></path>
        <path id="Line" d="M739.5,272.2 L644.971525,272.2 L644.471525,272.2 L644.471525,271.2 L644.971525,271.2 L739.5,271.2 L739.5,267.2 L748.5,271.7 L739.5,276.2 L739.5,272.2 Z" fill="#76787F" fill-rule="nonzero"></path>
        <path id="Line" d="M739.5,440.2 L644.971525,440.2 L644.471525,440.2 L644.471525,439.2 L644.971525,439.2 L739.5,439.2 L739.5,435.2 L748.5,439.7 L739.5,444.2 L739.5,440.2 Z" fill="#76787F" fill-rule="nonzero"></path>
        <path d="M538,439 L365,439 L365,318.3842 M365,205.011682 L365,85 L538,85" id="Shape" stroke="#76787F"></path>
        <path id="Line" d="M739.5,85.2 L644.971525,85.2 L644.471525,85.2 L644.471525,84.2 L644.971525,84.2 L739.5,84.2 L739.5,80.2 L748.5,84.7 L739.5,89.2 L739.5,85.2 Z" fill="#76787F" fill-rule="nonzero"></path>
        <rect id="Rectangle" fill="#FFFFFF" x="216" y="259" width="59" height="25"></rect>
        <path d="M233.384125,277.964088 C231.462518,277.964088 229.522783,277.299724 228,275.953039 L229.649682,273.995856 C230.791769,274.929558 231.988241,275.522099 233.438511,275.522099 C234.580598,275.522099 235.269476,275.073204 235.269476,274.337017 L235.269476,274.301105 C235.269476,273.600829 234.834395,273.241713 232.713376,272.703039 C230.157276,272.05663 228.507594,271.356354 228.507594,268.860497 L228.507594,268.824586 C228.507594,266.544199 230.356688,265.035912 232.949045,265.035912 C234.798138,265.035912 236.375306,265.610497 237.66242,266.633978 L236.212151,268.716851 C235.088192,267.944751 233.982362,267.477901 232.912788,267.477901 C231.843214,267.477901 231.281235,267.962707 231.281235,268.573204 L231.281235,268.609116 C231.281235,269.435083 231.825086,269.70442 234.018618,270.26105 C236.592847,270.925414 238.043116,271.84116 238.043116,274.031768 L238.043116,274.06768 C238.043116,276.563536 236.121509,277.964088 233.384125,277.964088 Z M244.986281,277.964088 C243.064674,277.964088 241.124939,277.299724 239.602156,275.953039 L241.251837,273.995856 C242.393925,274.929558 243.590397,275.522099 245.040666,275.522099 C246.182754,275.522099 246.871632,275.073204 246.871632,274.337017 L246.871632,274.301105 C246.871632,273.600829 246.436551,273.241713 244.315532,272.703039 C241.759432,272.05663 240.10975,271.356354 240.10975,268.860497 L240.10975,268.824586 C240.10975,266.544199 241.958844,265.035912 244.5512,265.035912 C246.400294,265.035912 247.977462,265.610497 249.264576,266.633978 L247.814307,268.716851 C246.690348,267.944751 245.584517,267.477901 244.514944,267.477901 C243.44537,267.477901 242.88339,267.962707 242.88339,268.573204 L242.88339,268.609116 C242.88339,269.435083 243.427242,269.70442 245.620774,270.26105 C248.195002,270.925414 249.645272,271.84116 249.645272,274.031768 L249.645272,274.06768 C249.645272,276.563536 247.723665,277.964088 244.986281,277.964088 Z M258.238119,278 C254.322391,278 251.512494,275.109116 251.512494,271.535912 L251.512494,271.5 C251.512494,267.926796 254.358648,265 258.274375,265 C262.190103,265 265,267.890884 265,271.464088 L265,271.5 C265,275.073204 262.153846,278 258.238119,278 Z M258.274375,275.450276 C260.522293,275.450276 262.081333,273.690608 262.081333,271.535912 L262.081333,271.5 C262.081333,269.345304 260.486036,267.549724 258.238119,267.549724 C255.990201,267.549724 254.431161,269.309392 254.431161,271.464088 L254.431161,271.5 C254.431161,273.654696 256.026458,275.450276 258.274375,275.450276 Z" id="SSO" fill="#494B54"></path>
        <g id="Group-21" transform="translate(316.000000, 214.000000)">
            <g id="Group-3" transform="translate(0.000000, 47.840435)">
                <mask id="mask-2" fill="white">
                    <use xlink:href="#path-1"></use>
                </mask>
                <g id="Clip-2"></g>
                <path d="M1.47073235,1.44202899 C1.47073235,1.44637681 1.46782059,1.44927536 1.46345294,1.44927536 C1.45908529,1.44927536 1.45617353,1.44637681 1.45617353,1.44202899 C1.45617353,1.43768116 1.45908529,1.43478261 1.46345294,1.43478261 C1.46782059,1.43478261 1.47073235,1.43768116 1.47073235,1.44202899" id="Fill-1" fill="#4A4C54" mask="url(#mask-2)"></path>
            </g>
            <g id="Group-6" transform="translate(96.088235, 47.840435)">
                <mask id="mask-4" fill="white">
                    <use xlink:href="#path-3"></use>
                </mask>
                <g id="Clip-5"></g>
                <path d="M1.47073235,1.44913043 C1.47073235,1.45347826 1.46636471,1.45637681 1.46345294,1.45637681 C1.45908529,1.45637681 1.45471765,1.45347826 1.45471765,1.44913043 C1.45471765,1.44478261 1.45908529,1.44188406 1.46345294,1.44188406 C1.46636471,1.44188406 1.47073235,1.44478261 1.47073235,1.44913043" id="Fill-4" fill="#4A4C54" mask="url(#mask-4)"></path>
            </g>
            <g id="Group-9" transform="translate(48.044118, 95.666522)">
                <mask id="mask-6" fill="white">
                    <use xlink:href="#path-5"></use>
                </mask>
                <g id="Clip-8"></g>
                <path d="M1.30723676,1.44202899 C1.30723676,1.44637681 1.304325,1.44927536 1.29995735,1.44927536 C1.29558971,1.44927536 1.29267794,1.44637681 1.29267794,1.44202899 C1.29267794,1.43768116 1.29558971,1.43478261 1.29995735,1.43478261 C1.304325,1.43478261 1.30723676,1.43768116 1.30723676,1.44202899" id="Fill-7" fill="#4A4C54" mask="url(#mask-6)"></path>
            </g>
            <g id="Group-12" transform="translate(48.044118, 0.014348)">
                <mask id="mask-8" fill="white">
                    <use xlink:href="#path-7"></use>
                </mask>
                <g id="Clip-11"></g>
                <path d="M1.299375,1.44202899 C1.299375,1.44637681 1.29646324,1.44927536 1.29209559,1.44927536 C1.28772794,1.44927536 1.28481618,1.44637681 1.28481618,1.44202899 C1.28481618,1.43768116 1.28772794,1.43478261 1.29209559,1.43478261 C1.29646324,1.43478261 1.299375,1.43768116 1.299375,1.44202899" id="Fill-10" fill="#4A4C54" mask="url(#mask-8)"></path>
            </g>
            <path d="M56.6443059,90.7723188 L49.5075706,95.3288406 L42.3708353,90.7723188 C17.9061882,75.1549275 3.11879118,48.2636232 3.11879118,19.3911594 L3.11879118,3.23753623 L95.8948941,3.23753623 L95.8948941,19.3911594 C95.8948941,48.2636232 81.1074971,75.1549275 56.6443059,90.7723188" id="Fill-13" fill="#00A9E0"></path>
            <path d="M42.3989338,30.5381159 C42.3989338,26.6033333 45.5873162,23.4033333 49.5065515,23.4033333 C53.4243309,23.4033333 56.6141691,26.6033333 56.6141691,30.5410145 L56.6170809,39.8062319 L42.4018456,39.8062319 L42.3989338,30.5381159 Z M62.4376985,30.5381159 C62.4376985,23.4076812 56.6360074,17.6062319 49.5065515,17.6062319 C42.3756397,17.6062319 36.5754044,23.4076812 36.5754044,30.5410145 L36.5754044,53.0395652 L62.4391544,53.0395652 L62.4376985,30.5381159 Z" id="Fill-15" fill="#FFFFFF"></path>
            <mask id="mask-10" fill="white">
                <use xlink:href="#path-9"></use>
            </mask>
            <g id="Clip-18"></g>
            <polygon id="Fill-17" fill="#FFFFFF" mask="url(#mask-10)" points="30.7511471 62.0650725 68.2619559 62.0650725 68.2619559 37.2766667 30.7511471 37.2766667"></polygon>
            <path d="M52.8317868,47.8417391 C52.8317868,49.4171014 51.5491544,50.693913 49.9666103,50.693913 C48.3855221,50.693913 47.1028897,49.4171014 47.1028897,47.8417391 C47.1028897,46.2663768 48.3855221,44.9895652 49.9666103,44.9895652 C51.5491544,44.9895652 52.8317868,46.2663768 52.8317868,47.8417391" id="Fill-19" fill="#00A9E0" mask="url(#mask-10)"></path>
            <polygon id="Fill-20" fill="#00A9E0" mask="url(#mask-10)" points="48.4983529 53.5607246 51.4363235 53.5607246 51.4363235 47.825942 48.4983529 47.825942"></polygon>
        </g>
        <g id="Group" transform="translate(545.000000, 50.000000)">
            <g id="Group-3" transform="translate(0.000000, 0.000000)">
                <mask id="mask-12" fill="white">
                    <use xlink:href="#path-11"></use>
                </mask>
                <g id="Clip-2"></g>
                <path d="M75.1297885,33.12925 C75.7624808,31.5179038 76.1124808,29.7665577 76.1124808,27.93175 C76.1124808,20.0715577 69.7424808,13.7002115 61.8822885,13.7002115 C60.4095962,13.7002115 58.9894038,13.9236731 57.6540192,14.3396346 C54.4663269,5.95848077 46.3624808,0.000403846154 36.8640192,0.000403846154 C24.5830577,0.000403846154 14.6255577,9.95655769 14.6255577,22.2388654 C14.6255577,23.1946346 14.6928654,24.1329038 14.8099808,25.0563654 C6.14748077,28.4029038 -0.000403846154,36.8029038 -0.000403846154,46.6459808 C-0.000403846154,59.3765577 10.2788269,69.7015577 22.9892115,69.7836731 L22.9892115,69.7877115 L66.8549808,69.7877115 L66.8549808,69.7863654 C66.8711346,69.7863654 66.8859423,69.7877115 66.9020962,69.7877115 C77.5353654,69.7877115 86.1534423,61.1682885 86.1534423,50.5363654 C86.1534423,42.8471346 81.6451731,36.2146346 75.1297885,33.12925" id="Fill-1" fill="#4A4C54" mask="url(#mask-12)"></path>
            </g>
            <g id="Group-17" transform="translate(47.000000, 35.000000)">
                <path d="M17.1492608,11.4811957 C17.5749965,11.0644794 18.2651205,11.0644794 18.6903535,11.4811957 C19.1160892,11.8979119 19.1160892,12.5734153 18.6903535,12.9896396 C18.2651205,13.4063558 17.5749965,13.4063558 17.1492608,12.9896396 C16.7235251,12.5734153 16.7235251,11.8979119 17.1492608,11.4811957 Z M7.14773967,19.8007609 L7.15930038,22.9288387 L10.3178871,22.9037471 L10.4782291,22.7463101 L10.4807423,20.6081178 L12.5938388,20.6081178 L12.5968547,18.5368364 L14.6818034,18.5368364 L15.8323452,17.4328089 C17.8800986,18.2190103 20.2988,17.804262 21.9539919,16.1841362 C24.1816903,14.0031407 24.1816903,10.4676945 21.9539919,8.28719108 C19.725791,6.10619565 16.1138234,6.10619565 13.886125,8.28719108 C12.196251,9.94028032 11.7896156,12.3726831 12.6621978,14.4026373 L7.14773967,19.8007609 Z" id="Fill-13" fill="#FFFFFF"></path>
                <path d="M30.5403817,14.879524 C30.5403817,22.9870412 23.8261231,29.5590549 15.5431265,29.5590549 C7.2606325,29.5590549 0.546373831,22.9870412 0.546373831,14.879524 C0.546373831,6.77200686 7.2606325,0.199993135 15.5431265,0.199993135 C23.8261231,0.199993135 30.5403817,6.77200686 30.5403817,14.879524 Z" id="Stroke-15" stroke="#FFFFFF" stroke-width="2.01599994"></path>
            </g>
        </g>
        <g id="Group" transform="translate(545.000000, 226.000000)">
            <g id="Group-3" transform="translate(0.000000, 0.000000)">
                <mask id="mask-14" fill="white">
                    <use xlink:href="#path-13"></use>
                </mask>
                <g id="Clip-2"></g>
                <path d="M75.1297885,33.12925 C75.7624808,31.5179038 76.1124808,29.7665577 76.1124808,27.93175 C76.1124808,20.0715577 69.7424808,13.7002115 61.8822885,13.7002115 C60.4095962,13.7002115 58.9894038,13.9236731 57.6540192,14.3396346 C54.4663269,5.95848077 46.3624808,0.000403846154 36.8640192,0.000403846154 C24.5830577,0.000403846154 14.6255577,9.95655769 14.6255577,22.2388654 C14.6255577,23.1946346 14.6928654,24.1329038 14.8099808,25.0563654 C6.14748077,28.4029038 -0.000403846154,36.8029038 -0.000403846154,46.6459808 C-0.000403846154,59.3765577 10.2788269,69.7015577 22.9892115,69.7836731 L22.9892115,69.7877115 L66.8549808,69.7877115 L66.8549808,69.7863654 C66.8711346,69.7863654 66.8859423,69.7877115 66.9020962,69.7877115 C77.5353654,69.7877115 86.1534423,61.1682885 86.1534423,50.5363654 C86.1534423,42.8471346 81.6451731,36.2146346 75.1297885,33.12925" id="Fill-1" fill="#4A4C54" mask="url(#mask-14)"></path>
            </g>
            <g id="Group-17" transform="translate(47.000000, 35.000000)">
                <path d="M17.1492608,11.4811957 C17.5749965,11.0644794 18.2651205,11.0644794 18.6903535,11.4811957 C19.1160892,11.8979119 19.1160892,12.5734153 18.6903535,12.9896396 C18.2651205,13.4063558 17.5749965,13.4063558 17.1492608,12.9896396 C16.7235251,12.5734153 16.7235251,11.8979119 17.1492608,11.4811957 Z M7.14773967,19.8007609 L7.15930038,22.9288387 L10.3178871,22.9037471 L10.4782291,22.7463101 L10.4807423,20.6081178 L12.5938388,20.6081178 L12.5968547,18.5368364 L14.6818034,18.5368364 L15.8323452,17.4328089 C17.8800986,18.2190103 20.2988,17.804262 21.9539919,16.1841362 C24.1816903,14.0031407 24.1816903,10.4676945 21.9539919,8.28719108 C19.725791,6.10619565 16.1138234,6.10619565 13.886125,8.28719108 C12.196251,9.94028032 11.7896156,12.3726831 12.6621978,14.4026373 L7.14773967,19.8007609 Z" id="Fill-13" fill="#FFFFFF"></path>
                <path d="M30.5403817,14.879524 C30.5403817,22.9870412 23.8261231,29.5590549 15.5431265,29.5590549 C7.2606325,29.5590549 0.546373831,22.9870412 0.546373831,14.879524 C0.546373831,6.77200686 7.2606325,0.199993135 15.5431265,0.199993135 C23.8261231,0.199993135 30.5403817,6.77200686 30.5403817,14.879524 Z" id="Stroke-15" stroke="#FFFFFF" stroke-width="2.01599994"></path>
            </g>
        </g>
        <g id="Group" transform="translate(545.000000, 402.000000)">
            <g id="Group-3" transform="translate(0.000000, 0.000000)">
                <mask id="mask-16" fill="white">
                    <use xlink:href="#path-15"></use>
                </mask>
                <g id="Clip-2"></g>
                <path d="M75.1297885,33.12925 C75.7624808,31.5179038 76.1124808,29.7665577 76.1124808,27.93175 C76.1124808,20.0715577 69.7424808,13.7002115 61.8822885,13.7002115 C60.4095962,13.7002115 58.9894038,13.9236731 57.6540192,14.3396346 C54.4663269,5.95848077 46.3624808,0.000403846154 36.8640192,0.000403846154 C24.5830577,0.000403846154 14.6255577,9.95655769 14.6255577,22.2388654 C14.6255577,23.1946346 14.6928654,24.1329038 14.8099808,25.0563654 C6.14748077,28.4029038 -0.000403846154,36.8029038 -0.000403846154,46.6459808 C-0.000403846154,59.3765577 10.2788269,69.7015577 22.9892115,69.7836731 L22.9892115,69.7877115 L66.8549808,69.7877115 L66.8549808,69.7863654 C66.8711346,69.7863654 66.8859423,69.7877115 66.9020962,69.7877115 C77.5353654,69.7877115 86.1534423,61.1682885 86.1534423,50.5363654 C86.1534423,42.8471346 81.6451731,36.2146346 75.1297885,33.12925" id="Fill-1" fill="#4A4C54" mask="url(#mask-16)"></path>
            </g>
            <g id="Group-17" transform="translate(47.000000, 35.000000)">
                <path d="M17.1492608,11.4811957 C17.5749965,11.0644794 18.2651205,11.0644794 18.6903535,11.4811957 C19.1160892,11.8979119 19.1160892,12.5734153 18.6903535,12.9896396 C18.2651205,13.4063558 17.5749965,13.4063558 17.1492608,12.9896396 C16.7235251,12.5734153 16.7235251,11.8979119 17.1492608,11.4811957 Z M7.14773967,19.8007609 L7.15930038,22.9288387 L10.3178871,22.9037471 L10.4782291,22.7463101 L10.4807423,20.6081178 L12.5938388,20.6081178 L12.5968547,18.5368364 L14.6818034,18.5368364 L15.8323452,17.4328089 C17.8800986,18.2190103 20.2988,17.804262 21.9539919,16.1841362 C24.1816903,14.0031407 24.1816903,10.4676945 21.9539919,8.28719108 C19.725791,6.10619565 16.1138234,6.10619565 13.886125,8.28719108 C12.196251,9.94028032 11.7896156,12.3726831 12.6621978,14.4026373 L7.14773967,19.8007609 Z" id="Fill-13" fill="#FFFFFF"></path>
                <path d="M30.5403817,14.879524 C30.5403817,22.9870412 23.8261231,29.5590549 15.5431265,29.5590549 C7.2606325,29.5590549 0.546373831,22.9870412 0.546373831,14.879524 C0.546373831,6.77200686 7.2606325,0.199993135 15.5431265,0.199993135 C23.8261231,0.199993135 30.5403817,6.77200686 30.5403817,14.879524 Z" id="Stroke-15" stroke="#FFFFFF" stroke-width="2.01599994"></path>
            </g>
        </g>
        <path d="M414.550725,271.989565 L538,271.989565" id="Line-4" stroke="#76787F" stroke-linecap="square"></path>
        <g id="Group-17" transform="translate(755.000000, 50.000000)">
            <polygon id="Fill-1" fill="#4A4C54" points="2.001 66.0123 66.006 66.0123 66.006 1.9983 2.001 1.9983"></polygon>
            <g id="Group-16" transform="translate(0.000000, 0.382300)">
                <path d="M10.0002,7.616 C10.0002,8.72 9.1042,9.616 8.0002,9.616 C6.8952,9.616 6.0002,8.72 6.0002,7.616 C6.0002,6.512 6.8952,5.616 8.0002,5.616 C9.1042,5.616 10.0002,6.512 10.0002,7.616" id="Fill-2" fill="#FFFFFF"></path>
                <path d="M18.0002,7.616 C18.0002,8.72 17.1042,9.616 16.0002,9.616 C14.8952,9.616 14.0002,8.72 14.0002,7.616 C14.0002,6.512 14.8952,5.616 16.0002,5.616 C17.1042,5.616 18.0002,6.512 18.0002,7.616" id="Fill-4" fill="#FFFFFF"></path>
                <path d="M26.0002,7.616 C26.0002,8.72 25.1042,9.616 24.0002,9.616 C22.8952,9.616 22.0002,8.72 22.0002,7.616 C22.0002,6.512 22.8952,5.616 24.0002,5.616 C25.1042,5.616 26.0002,6.512 26.0002,7.616" id="Fill-6" fill="#FFFFFF"></path>
                <mask id="mask-18" fill="white">
                    <use xlink:href="#path-17"></use>
                </mask>
                <g id="Clip-9"></g>
                <polygon id="Fill-8" fill="#FFFFFF" mask="url(#mask-18)" points="0 14.749 67.33 14.749 67.33 13.432 0 13.432"></polygon>
                <path d="M1.008,33.6228 C1.008,33.6258 1.006,33.6278 1.003,33.6278 C1,33.6278 0.998,33.6258 0.998,33.6228 C0.998,33.6198 1,33.6178 1.003,33.6178 C1.006,33.6178 1.008,33.6198 1.008,33.6228" id="Fill-10" fill="#4A4C54" mask="url(#mask-18)"></path>
                <path d="M67.008,33.6277 C67.008,33.6307 67.006,33.6327 67.003,33.6327 C67,33.6327 66.998,33.6307 66.998,33.6277 C66.998,33.6247 67,33.6227 67.003,33.6227 C67.006,33.6227 67.008,33.6247 67.008,33.6277" id="Fill-11" fill="#4A4C54" mask="url(#mask-18)"></path>
                <path d="M33.8957,66.6228 C33.8957,66.6258 33.8937,66.6278 33.8907,66.6278 C33.8877,66.6278 33.8857,66.6258 33.8857,66.6228 C33.8857,66.6198 33.8877,66.6178 33.8907,66.6178 C33.8937,66.6178 33.8957,66.6198 33.8957,66.6228" id="Fill-12" fill="#4A4C54" mask="url(#mask-18)"></path>
                <path d="M33.8908,0.6228 C33.8908,0.6258 33.8888,0.6278 33.8858,0.6278 C33.8828,0.6278 33.8808,0.6258 33.8808,0.6228 C33.8808,0.6198 33.8828,0.6178 33.8858,0.6178 C33.8888,0.6178 33.8908,0.6198 33.8908,0.6228" id="Fill-13" fill="#4A4C54" mask="url(#mask-18)"></path>
                <path d="M70.8312,53.6316 C70.8312,63.7766 62.6072,71.9996 52.4622,71.9996 C42.3172,71.9996 34.0942,63.7766 34.0942,53.6316 C34.0942,43.4856 42.3172,35.2626 52.4622,35.2626 C62.6072,35.2626 70.8312,43.4856 70.8312,53.6316" id="Fill-14" fill="#FFFFFF" mask="url(#mask-18)"></path>
                <path d="M52.4626,57.8084 C50.1556,57.8084 48.2856,55.9384 48.2856,53.6304 C48.2856,51.3244 50.1556,49.4544 52.4626,49.4544 C54.7696,49.4544 56.6386,51.3244 56.6386,53.6304 C56.6386,55.9384 54.7696,57.8084 52.4626,57.8084 M62.2226,53.6304 C62.2226,53.6014 62.2226,53.5724 62.2226,53.5424 C62.2116,52.3284 62.8046,51.1894 63.8516,50.5724 L65.0426,49.8704 L61.8456,44.4484 L60.6446,45.1564 C59.6176,45.7604 58.3486,45.7634 57.3146,45.1704 C57.3036,45.1634 57.2936,45.1584 57.2826,45.1524 C56.2486,44.5644 55.6096,43.4684 55.6096,42.2794 L55.6096,40.8844 L49.3156,40.8844 L49.3156,42.2784 C49.3156,43.4674 48.6766,44.5644 47.6426,45.1514 C47.6316,45.1584 47.6216,45.1634 47.6106,45.1694 C46.5766,45.7634 45.3076,45.7604 44.2806,45.1554 L43.0796,44.4484 L39.8826,49.8704 L41.0746,50.5724 C42.1216,51.1894 42.7136,52.3284 42.7026,53.5434 C42.7026,53.5734 42.7026,53.6024 42.7026,53.6304 C42.7026,53.6604 42.7026,53.6894 42.7026,53.7184 C42.7136,54.9344 42.1216,56.0734 41.0746,56.6904 L39.8826,57.3924 L43.0796,62.8144 L44.2806,62.1074 C45.3076,61.5014 46.5766,61.4984 47.6106,62.0914 C47.6216,62.0984 47.6316,62.1044 47.6426,62.1104 C48.6766,62.6984 49.3156,63.7934 49.3156,64.9834 L49.3156,66.3774 L55.6096,66.3774 L55.6096,64.9834 C55.6096,63.7934 56.2486,62.6984 57.2826,62.1104 C57.2936,62.1044 57.3036,62.0984 57.3146,62.0914 C58.3486,61.4984 59.6176,61.5014 60.6446,62.1064 L61.8456,62.8144 L65.0426,57.3924 L63.8516,56.6904 C62.8046,56.0734 62.2116,54.9344 62.2226,53.7194 C62.2226,53.6904 62.2226,53.6614 62.2226,53.6304" id="Fill-15" fill="#4A4C54" mask="url(#mask-18)"></path>
            </g>
        </g>
        <g id="Group-17" transform="translate(755.000000, 235.000000)">
            <polygon id="Fill-1" fill="#4A4C54" points="2.001 66.0123 66.006 66.0123 66.006 1.9983 2.001 1.9983"></polygon>
            <g id="Group-16" transform="translate(0.000000, 0.382300)">
                <path d="M10.0002,7.616 C10.0002,8.72 9.1042,9.616 8.0002,9.616 C6.8952,9.616 6.0002,8.72 6.0002,7.616 C6.0002,6.512 6.8952,5.616 8.0002,5.616 C9.1042,5.616 10.0002,6.512 10.0002,7.616" id="Fill-2" fill="#FFFFFF"></path>
                <path d="M18.0002,7.616 C18.0002,8.72 17.1042,9.616 16.0002,9.616 C14.8952,9.616 14.0002,8.72 14.0002,7.616 C14.0002,6.512 14.8952,5.616 16.0002,5.616 C17.1042,5.616 18.0002,6.512 18.0002,7.616" id="Fill-4" fill="#FFFFFF"></path>
                <path d="M26.0002,7.616 C26.0002,8.72 25.1042,9.616 24.0002,9.616 C22.8952,9.616 22.0002,8.72 22.0002,7.616 C22.0002,6.512 22.8952,5.616 24.0002,5.616 C25.1042,5.616 26.0002,6.512 26.0002,7.616" id="Fill-6" fill="#FFFFFF"></path>
                <mask id="mask-20" fill="white">
                    <use xlink:href="#path-19"></use>
                </mask>
                <g id="Clip-9"></g>
                <polygon id="Fill-8" fill="#FFFFFF" mask="url(#mask-20)" points="0 14.749 67.33 14.749 67.33 13.432 0 13.432"></polygon>
                <path d="M1.008,33.6228 C1.008,33.6258 1.006,33.6278 1.003,33.6278 C1,33.6278 0.998,33.6258 0.998,33.6228 C0.998,33.6198 1,33.6178 1.003,33.6178 C1.006,33.6178 1.008,33.6198 1.008,33.6228" id="Fill-10" fill="#4A4C54" mask="url(#mask-20)"></path>
                <path d="M67.008,33.6277 C67.008,33.6307 67.006,33.6327 67.003,33.6327 C67,33.6327 66.998,33.6307 66.998,33.6277 C66.998,33.6247 67,33.6227 67.003,33.6227 C67.006,33.6227 67.008,33.6247 67.008,33.6277" id="Fill-11" fill="#4A4C54" mask="url(#mask-20)"></path>
                <path d="M33.8957,66.6228 C33.8957,66.6258 33.8937,66.6278 33.8907,66.6278 C33.8877,66.6278 33.8857,66.6258 33.8857,66.6228 C33.8857,66.6198 33.8877,66.6178 33.8907,66.6178 C33.8937,66.6178 33.8957,66.6198 33.8957,66.6228" id="Fill-12" fill="#4A4C54" mask="url(#mask-20)"></path>
                <path d="M33.8908,0.6228 C33.8908,0.6258 33.8888,0.6278 33.8858,0.6278 C33.8828,0.6278 33.8808,0.6258 33.8808,0.6228 C33.8808,0.6198 33.8828,0.6178 33.8858,0.6178 C33.8888,0.6178 33.8908,0.6198 33.8908,0.6228" id="Fill-13" fill="#4A4C54" mask="url(#mask-20)"></path>
                <path d="M70.8312,53.6316 C70.8312,63.7766 62.6072,71.9996 52.4622,71.9996 C42.3172,71.9996 34.0942,63.7766 34.0942,53.6316 C34.0942,43.4856 42.3172,35.2626 52.4622,35.2626 C62.6072,35.2626 70.8312,43.4856 70.8312,53.6316" id="Fill-14" fill="#FFFFFF" mask="url(#mask-20)"></path>
                <path d="M52.4626,57.8084 C50.1556,57.8084 48.2856,55.9384 48.2856,53.6304 C48.2856,51.3244 50.1556,49.4544 52.4626,49.4544 C54.7696,49.4544 56.6386,51.3244 56.6386,53.6304 C56.6386,55.9384 54.7696,57.8084 52.4626,57.8084 M62.2226,53.6304 C62.2226,53.6014 62.2226,53.5724 62.2226,53.5424 C62.2116,52.3284 62.8046,51.1894 63.8516,50.5724 L65.0426,49.8704 L61.8456,44.4484 L60.6446,45.1564 C59.6176,45.7604 58.3486,45.7634 57.3146,45.1704 C57.3036,45.1634 57.2936,45.1584 57.2826,45.1524 C56.2486,44.5644 55.6096,43.4684 55.6096,42.2794 L55.6096,40.8844 L49.3156,40.8844 L49.3156,42.2784 C49.3156,43.4674 48.6766,44.5644 47.6426,45.1514 C47.6316,45.1584 47.6216,45.1634 47.6106,45.1694 C46.5766,45.7634 45.3076,45.7604 44.2806,45.1554 L43.0796,44.4484 L39.8826,49.8704 L41.0746,50.5724 C42.1216,51.1894 42.7136,52.3284 42.7026,53.5434 C42.7026,53.5734 42.7026,53.6024 42.7026,53.6304 C42.7026,53.6604 42.7026,53.6894 42.7026,53.7184 C42.7136,54.9344 42.1216,56.0734 41.0746,56.6904 L39.8826,57.3924 L43.0796,62.8144 L44.2806,62.1074 C45.3076,61.5014 46.5766,61.4984 47.6106,62.0914 C47.6216,62.0984 47.6316,62.1044 47.6426,62.1104 C48.6766,62.6984 49.3156,63.7934 49.3156,64.9834 L49.3156,66.3774 L55.6096,66.3774 L55.6096,64.9834 C55.6096,63.7934 56.2486,62.6984 57.2826,62.1104 C57.2936,62.1044 57.3036,62.0984 57.3146,62.0914 C58.3486,61.4984 59.6176,61.5014 60.6446,62.1064 L61.8456,62.8144 L65.0426,57.3924 L63.8516,56.6904 C62.8046,56.0734 62.2116,54.9344 62.2226,53.7194 C62.2226,53.6904 62.2226,53.6614 62.2226,53.6304" id="Fill-15" fill="#4A4C54" mask="url(#mask-20)"></path>
            </g>
        </g>
        <g id="Group-17" transform="translate(755.000000, 403.000000)">
            <polygon id="Fill-1" fill="#4A4C54" points="2.001 66.0123 66.006 66.0123 66.006 1.9983 2.001 1.9983"></polygon>
            <g id="Group-16" transform="translate(0.000000, 0.382300)">
                <path d="M10.0002,7.616 C10.0002,8.72 9.1042,9.616 8.0002,9.616 C6.8952,9.616 6.0002,8.72 6.0002,7.616 C6.0002,6.512 6.8952,5.616 8.0002,5.616 C9.1042,5.616 10.0002,6.512 10.0002,7.616" id="Fill-2" fill="#FFFFFF"></path>
                <path d="M18.0002,7.616 C18.0002,8.72 17.1042,9.616 16.0002,9.616 C14.8952,9.616 14.0002,8.72 14.0002,7.616 C14.0002,6.512 14.8952,5.616 16.0002,5.616 C17.1042,5.616 18.0002,6.512 18.0002,7.616" id="Fill-4" fill="#FFFFFF"></path>
                <path d="M26.0002,7.616 C26.0002,8.72 25.1042,9.616 24.0002,9.616 C22.8952,9.616 22.0002,8.72 22.0002,7.616 C22.0002,6.512 22.8952,5.616 24.0002,5.616 C25.1042,5.616 26.0002,6.512 26.0002,7.616" id="Fill-6" fill="#FFFFFF"></path>
                <mask id="mask-22" fill="white">
                    <use xlink:href="#path-21"></use>
                </mask>
                <g id="Clip-9"></g>
                <polygon id="Fill-8" fill="#FFFFFF" mask="url(#mask-22)" points="0 14.749 67.33 14.749 67.33 13.432 0 13.432"></polygon>
                <path d="M1.008,33.6228 C1.008,33.6258 1.006,33.6278 1.003,33.6278 C1,33.6278 0.998,33.6258 0.998,33.6228 C0.998,33.6198 1,33.6178 1.003,33.6178 C1.006,33.6178 1.008,33.6198 1.008,33.6228" id="Fill-10" fill="#4A4C54" mask="url(#mask-22)"></path>
                <path d="M67.008,33.6277 C67.008,33.6307 67.006,33.6327 67.003,33.6327 C67,33.6327 66.998,33.6307 66.998,33.6277 C66.998,33.6247 67,33.6227 67.003,33.6227 C67.006,33.6227 67.008,33.6247 67.008,33.6277" id="Fill-11" fill="#4A4C54" mask="url(#mask-22)"></path>
                <path d="M33.8957,66.6228 C33.8957,66.6258 33.8937,66.6278 33.8907,66.6278 C33.8877,66.6278 33.8857,66.6258 33.8857,66.6228 C33.8857,66.6198 33.8877,66.6178 33.8907,66.6178 C33.8937,66.6178 33.8957,66.6198 33.8957,66.6228" id="Fill-12" fill="#4A4C54" mask="url(#mask-22)"></path>
                <path d="M33.8908,0.6228 C33.8908,0.6258 33.8888,0.6278 33.8858,0.6278 C33.8828,0.6278 33.8808,0.6258 33.8808,0.6228 C33.8808,0.6198 33.8828,0.6178 33.8858,0.6178 C33.8888,0.6178 33.8908,0.6198 33.8908,0.6228" id="Fill-13" fill="#4A4C54" mask="url(#mask-22)"></path>
                <path d="M70.8312,53.6316 C70.8312,63.7766 62.6072,71.9996 52.4622,71.9996 C42.3172,71.9996 34.0942,63.7766 34.0942,53.6316 C34.0942,43.4856 42.3172,35.2626 52.4622,35.2626 C62.6072,35.2626 70.8312,43.4856 70.8312,53.6316" id="Fill-14" fill="#FFFFFF" mask="url(#mask-22)"></path>
                <path d="M52.4626,57.8084 C50.1556,57.8084 48.2856,55.9384 48.2856,53.6304 C48.2856,51.3244 50.1556,49.4544 52.4626,49.4544 C54.7696,49.4544 56.6386,51.3244 56.6386,53.6304 C56.6386,55.9384 54.7696,57.8084 52.4626,57.8084 M62.2226,53.6304 C62.2226,53.6014 62.2226,53.5724 62.2226,53.5424 C62.2116,52.3284 62.8046,51.1894 63.8516,50.5724 L65.0426,49.8704 L61.8456,44.4484 L60.6446,45.1564 C59.6176,45.7604 58.3486,45.7634 57.3146,45.1704 C57.3036,45.1634 57.2936,45.1584 57.2826,45.1524 C56.2486,44.5644 55.6096,43.4684 55.6096,42.2794 L55.6096,40.8844 L49.3156,40.8844 L49.3156,42.2784 C49.3156,43.4674 48.6766,44.5644 47.6426,45.1514 C47.6316,45.1584 47.6216,45.1634 47.6106,45.1694 C46.5766,45.7634 45.3076,45.7604 44.2806,45.1554 L43.0796,44.4484 L39.8826,49.8704 L41.0746,50.5724 C42.1216,51.1894 42.7136,52.3284 42.7026,53.5434 C42.7026,53.5734 42.7026,53.6024 42.7026,53.6304 C42.7026,53.6604 42.7026,53.6894 42.7026,53.7184 C42.7136,54.9344 42.1216,56.0734 41.0746,56.6904 L39.8826,57.3924 L43.0796,62.8144 L44.2806,62.1074 C45.3076,61.5014 46.5766,61.4984 47.6106,62.0914 C47.6216,62.0984 47.6316,62.1044 47.6426,62.1104 C48.6766,62.6984 49.3156,63.7934 49.3156,64.9834 L49.3156,66.3774 L55.6096,66.3774 L55.6096,64.9834 C55.6096,63.7934 56.2486,62.6984 57.2826,62.1104 C57.2936,62.1044 57.3036,62.0984 57.3146,62.0914 C58.3486,61.4984 59.6176,61.5014 60.6446,62.1064 L61.8456,62.8144 L65.0426,57.3924 L63.8516,56.6904 C62.8046,56.0734 62.2116,54.9344 62.2226,53.7194 C62.2226,53.6904 62.2226,53.6614 62.2226,53.6304" id="Fill-15" fill="#4A4C54" mask="url(#mask-22)"></path>
            </g>
        </g>
        <path d="M846,89.87 L850.312,80 L851.908,80 L856.22,89.87 L854.4,89.87 L853.406,87.504 L848.772,87.504 L847.764,89.87 L846,89.87 Z M849.402,85.978 L852.776,85.978 L851.082,82.058 L849.402,85.978 Z M857.704,92.11 L857.704,82.478 L859.398,82.478 L859.398,83.71 C859.944,82.94 860.714,82.324 861.918,82.324 C863.654,82.324 865.348,83.696 865.348,86.16 L865.348,86.188 C865.348,88.638 863.668,90.024 861.918,90.024 C860.686,90.024 859.916,89.408 859.398,88.722 L859.398,92.11 L857.704,92.11 Z M861.512,88.554 C862.674,88.554 863.626,87.644 863.626,86.188 L863.626,86.16 C863.626,84.732 862.66,83.794 861.512,83.794 C860.364,83.794 859.356,84.746 859.356,86.16 L859.356,86.188 C859.356,87.602 860.364,88.554 861.512,88.554 Z M867.098,92.11 L867.098,82.478 L868.792,82.478 L868.792,83.71 C869.338,82.94 870.108,82.324 871.312,82.324 C873.048,82.324 874.742,83.696 874.742,86.16 L874.742,86.188 C874.742,88.638 873.062,90.024 871.312,90.024 C870.08,90.024 869.31,89.408 868.792,88.722 L868.792,92.11 L867.098,92.11 Z M870.906,88.554 C872.068,88.554 873.02,87.644 873.02,86.188 L873.02,86.16 C873.02,84.732 872.054,83.794 870.906,83.794 C869.758,83.794 868.75,84.746 868.75,86.16 L868.75,86.188 C868.75,87.602 869.758,88.554 870.906,88.554 Z M882.12,89.87 L882.12,81.75 L880.356,82.24 L879.992,80.84 L882.638,80 L883.828,80 L883.828,89.87 L882.12,89.87 Z" id="App-1" fill="#494B54"></path>
        <path d="M846,275.94 L850.312,266.07 L851.908,266.07 L856.22,275.94 L854.4,275.94 L853.406,273.574 L848.772,273.574 L847.764,275.94 L846,275.94 Z M849.402,272.048 L852.776,272.048 L851.082,268.128 L849.402,272.048 Z M857.704,278.18 L857.704,268.548 L859.398,268.548 L859.398,269.78 C859.944,269.01 860.714,268.394 861.918,268.394 C863.654,268.394 865.348,269.766 865.348,272.23 L865.348,272.258 C865.348,274.708 863.668,276.094 861.918,276.094 C860.686,276.094 859.916,275.478 859.398,274.792 L859.398,278.18 L857.704,278.18 Z M861.512,274.624 C862.674,274.624 863.626,273.714 863.626,272.258 L863.626,272.23 C863.626,270.802 862.66,269.864 861.512,269.864 C860.364,269.864 859.356,270.816 859.356,272.23 L859.356,272.258 C859.356,273.672 860.364,274.624 861.512,274.624 Z M867.098,278.18 L867.098,268.548 L868.792,268.548 L868.792,269.78 C869.338,269.01 870.108,268.394 871.312,268.394 C873.048,268.394 874.742,269.766 874.742,272.23 L874.742,272.258 C874.742,274.708 873.062,276.094 871.312,276.094 C870.08,276.094 869.31,275.478 868.792,274.792 L868.792,278.18 L867.098,278.18 Z M870.906,274.624 C872.068,274.624 873.02,273.714 873.02,272.258 L873.02,272.23 C873.02,270.802 872.054,269.864 870.906,269.864 C869.758,269.864 868.75,270.816 868.75,272.23 L868.75,272.258 C868.75,273.672 869.758,274.624 870.906,274.624 Z M880.314,275.94 L880.314,274.582 L883.688,271.712 C885.032,270.564 885.522,269.948 885.522,269.066 C885.522,268.1 884.836,267.54 883.94,267.54 C883.044,267.54 882.428,268.03 881.686,269.01 L880.454,268.044 C881.392,266.742 882.316,266 884.066,266 C885.984,266 887.3,267.176 887.3,268.926 L887.3,268.954 C887.3,270.494 886.488,271.334 884.752,272.748 L882.736,274.428 L887.398,274.428 L887.398,275.94 L880.314,275.94 Z" id="App-2" fill="#494B54"></path>
        <path d="M846,440.87 L850.312,431 L851.908,431 L856.22,440.87 L854.4,440.87 L853.406,438.504 L848.772,438.504 L847.764,440.87 L846,440.87 Z M849.402,436.978 L852.776,436.978 L851.082,433.058 L849.402,436.978 Z M857.704,443.11 L857.704,433.478 L859.398,433.478 L859.398,434.71 C859.944,433.94 860.714,433.324 861.918,433.324 C863.654,433.324 865.348,434.696 865.348,437.16 L865.348,437.188 C865.348,439.638 863.668,441.024 861.918,441.024 C860.686,441.024 859.916,440.408 859.398,439.722 L859.398,443.11 L857.704,443.11 Z M861.512,439.554 C862.674,439.554 863.626,438.644 863.626,437.188 L863.626,437.16 C863.626,435.732 862.66,434.794 861.512,434.794 C860.364,434.794 859.356,435.746 859.356,437.16 L859.356,437.188 C859.356,438.602 860.364,439.554 861.512,439.554 Z M867.098,443.11 L867.098,433.478 L868.792,433.478 L868.792,434.71 C869.338,433.94 870.108,433.324 871.312,433.324 C873.048,433.324 874.742,434.696 874.742,437.16 L874.742,437.188 C874.742,439.638 873.062,441.024 871.312,441.024 C870.08,441.024 869.31,440.408 868.792,439.722 L868.792,443.11 L867.098,443.11 Z M870.906,439.554 C872.068,439.554 873.02,438.644 873.02,437.188 L873.02,437.16 C873.02,435.732 872.054,434.794 870.906,434.794 C869.758,434.794 868.75,435.746 868.75,437.16 L868.75,437.188 C868.75,438.602 869.758,439.554 870.906,439.554 Z M883.982,441.038 C882.274,441.038 881.056,440.324 880.23,439.316 L881.434,438.196 C882.134,439.022 882.918,439.484 884.01,439.484 C884.976,439.484 885.704,438.896 885.704,438 L885.704,437.972 C885.704,437.006 884.822,436.46 883.45,436.46 L882.652,436.46 L882.372,435.382 L885.018,432.568 L880.776,432.568 L880.776,431.07 L887.258,431.07 L887.258,432.358 L884.528,435.158 C886.012,435.34 887.412,436.096 887.412,437.902 L887.412,437.93 C887.412,439.736 886.026,441.038 883.982,441.038 Z" id="App-3" fill="#494B54"></path>
    </g>
</svg>