<svg xmlns="http://www.w3.org/2000/svg" xmlns:xlink="http://www.w3.org/1999/xlink" width="100" height="90" viewBox="0 0 100 90">
    <defs>
        <path id="a" d="M99.92 43.56a12.29 12.29 0 0 1-.61 1.87c-.56 1.1-1.23 2.15-1.81 3.24a1.39 1.39 0 0 0-.22 1c1.48 3.71.64 7-1.64 10.11a1.08 1.08 0 0 0-.23 1.22c1.39 3.39.62 6.51-1.3 9.44a2.37 2.37 0 0 0-.47 2.17C94.56 76.4 94 80 91.14 83a9.17 9.17 0 0 1-5 2.66 28.93 28.93 0 0 1-5.13.55h-38a11.64 11.64 0 0 1-6.41-2.09 2.4 2.4 0 0 0-1.9-.48c0 .63-.07 1.23-.15 1.83a4 4 0 0 1-3.67 3.59 7.94 7.94 0 0 1-.87 0H4.72a4.28 4.28 0 0 1-4.63-4.19V45.32a4.46 4.46 0 0 1 4.68-4.74h28.55a16.08 16.08 0 0 1 2 .38c.336.09.694.047 1-.12a30.94 30.94 0 0 0 2.91-3.25 133 133 0 0 0 10.38-17.05 6.14 6.14 0 0 0 .75-3.19c-.13-3.29-.13-6.59-.25-9.88A5.46 5.46 0 0 1 53 2.27a10.63 10.63 0 0 1 11.57.64 6.59 6.59 0 0 1 1.78 2.66c1.23 3 2.4 6.07 3.44 9.16a19.81 19.81 0 0 1 .42 10.38c-.52 2.63-.9 5.29-1.35 7.93-.15.9-.12 1 .8 1h21.61a9.25 9.25 0 0 1 5 1.19 7.55 7.55 0 0 1 3.33 4.76c.08.31.18.61.27.91v2.71l.05-.05zm-70.34 1.26c-.32 0-.56-.05-.79-.05H5.11a.69.69 0 0 0-.85.86v38.43a.76.76 0 0 0 .93.94h23.36c1 0 1 0 1-1.05V44.86l.03-.04z"/>
    </defs>
    <use fill="#F3BD51" fill-rule="nonzero" xlink:href="#a"/>
</svg>
